<svg width="20" height="23" viewBox="0 0 20 23" fill="none" xmlns="http://www.w3.org/2000/svg">
<path fill-rule="evenodd" clip-rule="evenodd" d="M16.5 0.25C17.329 0.249954 18.1266 0.566686 18.7298 1.13539C19.3329 1.7041 19.696 2.48178 19.7446 3.30933L19.75 3.5V18.6667C19.7499 18.847 19.7049 19.0245 19.6188 19.183C19.5328 19.3415 19.4086 19.4761 19.2574 19.5744C19.1062 19.6728 18.9329 19.7318 18.7531 19.7462C18.5733 19.7606 18.3928 19.7299 18.2279 19.6568L18.0979 19.5897L15.1458 17.7718L12.1927 19.5897C12.0414 19.6826 11.8696 19.7369 11.6924 19.7479C11.5152 19.7589 11.3381 19.7261 11.1765 19.6525L11.0573 19.5897L8.10417 17.7718L5.151 19.5897C4.99622 19.6849 4.81997 19.7397 4.63846 19.749C4.45695 19.7583 4.27603 19.7218 4.11234 19.6428C3.94866 19.5638 3.80747 19.4449 3.70179 19.297C3.59611 19.1492 3.52932 18.9771 3.50758 18.7967L3.5 18.6667V12.1667H1.33333C1.06799 12.1666 0.811885 12.0692 0.613597 11.8929C0.415309 11.7166 0.288629 11.4736 0.257583 11.2101L0.25 11.0833V2.95833C0.249894 2.27072 0.511335 1.60881 0.981293 1.10687C1.45125 0.604922 2.09454 0.300524 2.78067 0.255417L2.95833 0.25H16.5ZM13.25 10H8.91667C8.62935 10 8.3538 10.1141 8.15063 10.3173C7.94747 10.5205 7.83333 10.796 7.83333 11.0833C7.83333 11.3707 7.94747 11.6462 8.15063 11.8494C8.3538 12.0525 8.62935 12.1667 8.91667 12.1667H13.25C13.5373 12.1667 13.8129 12.0525 14.016 11.8494C14.2192 11.6462 14.3333 11.3707 14.3333 11.0833C14.3333 10.796 14.2192 10.5205 14.016 10.3173C13.8129 10.1141 13.5373 10 13.25 10ZM2.95833 2.41667C2.81467 2.41667 2.6769 2.47374 2.57532 2.57532C2.47374 2.6769 2.41667 2.81467 2.41667 2.95833V10H3.5V2.95833C3.5 2.81467 3.44293 2.6769 3.34135 2.57532C3.23977 2.47374 3.10199 2.41667 2.95833 2.41667ZM14.3333 5.66667H8.91667C8.64055 5.66697 8.37496 5.7727 8.17418 5.96225C7.9734 6.1518 7.85258 6.41087 7.8364 6.68651C7.82022 6.96216 7.9099 7.23358 8.08712 7.44532C8.26434 7.65706 8.51573 7.79314 8.78992 7.82575L8.91667 7.83333H14.3333C14.6095 7.83303 14.875 7.7273 15.0758 7.53775C15.2766 7.3482 15.3974 7.08913 15.4136 6.81349C15.4298 6.53784 15.3401 6.26642 15.1629 6.05468C14.9857 5.84294 14.7343 5.70686 14.4601 5.67425L14.3333 5.66667Z" fill="#050505"/>
</svg>
