<svg width="18" height="22" viewBox="0 0 18 22" fill="none" xmlns="http://www.w3.org/2000/svg">
<path d="M0 2.75C0 2.15326 0.237053 1.58097 0.65901 1.15901C1.08097 0.737053 1.65326 0.5 2.25 0.5H11.0625C11.3826 0.5 11.6996 0.563048 11.9953 0.685544C12.291 0.808039 12.5597 0.987584 12.7861 1.21393C13.0124 1.44027 13.192 1.70898 13.3145 2.00471C13.437 2.30044 13.5 2.6174 13.5 2.9375V8.75H15.5625C15.8826 8.75 16.1996 8.81305 16.4953 8.93554C16.791 9.05804 17.0597 9.23759 17.2861 9.46393C17.5124 9.69027 17.692 9.95898 17.8145 10.2547C17.937 10.5504 18 10.8674 18 11.1875V20.75C18 20.9489 17.921 21.1397 17.7803 21.2803C17.6397 21.421 17.4489 21.5 17.25 21.5H14.25V18.125C14.25 17.8266 14.1315 17.5405 13.9205 17.3295C13.7095 17.1185 13.4234 17 13.125 17H4.875C4.57663 17 4.29048 17.1185 4.0795 17.3295C3.86853 17.5405 3.75 17.8266 3.75 18.125V21.5H0.75C0.551088 21.5 0.360322 21.421 0.21967 21.2803C0.0790178 21.1397 0 20.9489 0 20.75V2.75ZM12.75 18.5V21.5H9.75V18.5H12.75ZM8.25 18.5V21.5H5.25V18.5H8.25ZM6 5.375C6 5.07663 5.88147 4.79048 5.6705 4.5795C5.45952 4.36853 5.17337 4.25 4.875 4.25C4.57663 4.25 4.29048 4.36853 4.0795 4.5795C3.86853 4.79048 3.75 5.07663 3.75 5.375C3.75 5.67337 3.86853 5.95952 4.0795 6.1705C4.29048 6.38147 4.57663 6.5 4.875 6.5C5.17337 6.5 5.45952 6.38147 5.6705 6.1705C5.88147 5.95952 6 5.67337 6 5.375ZM6 9.125C6 8.82663 5.88147 8.54048 5.6705 8.3295C5.45952 8.11853 5.17337 8 4.875 8C4.57663 8 4.29048 8.11853 4.0795 8.3295C3.86853 8.54048 3.75 8.82663 3.75 9.125C3.75 9.42337 3.86853 9.70952 4.0795 9.9205C4.29048 10.1315 4.57663 10.25 4.875 10.25C5.17337 10.25 5.45952 10.1315 5.6705 9.9205C5.88147 9.70952 6 9.42337 6 9.125ZM4.875 14C5.17337 14 5.45952 13.8815 5.6705 13.6705C5.88147 13.4595 6 13.1734 6 12.875C6 12.5766 5.88147 12.2905 5.6705 12.0795C5.45952 11.8685 5.17337 11.75 4.875 11.75C4.57663 11.75 4.29048 11.8685 4.0795 12.0795C3.86853 12.2905 3.75 12.5766 3.75 12.875C3.75 13.1734 3.86853 13.4595 4.0795 13.6705C4.29048 13.8815 4.57663 14 4.875 14ZM9.75 5.375C9.75 5.07663 9.63147 4.79048 9.42049 4.5795C9.20952 4.36853 8.92337 4.25 8.625 4.25C8.32663 4.25 8.04048 4.36853 7.8295 4.5795C7.61853 4.79048 7.5 5.07663 7.5 5.375C7.5 5.67337 7.61853 5.95952 7.8295 6.1705C8.04048 6.38147 8.32663 6.5 8.625 6.5C8.92337 6.5 9.20952 6.38147 9.42049 6.1705C9.63147 5.95952 9.75 5.67337 9.75 5.375ZM8.625 10.25C8.92337 10.25 9.20952 10.1315 9.42049 9.9205C9.63147 9.70952 9.75 9.42337 9.75 9.125C9.75 8.82663 9.63147 8.54048 9.42049 8.3295C9.20952 8.11853 8.92337 8 8.625 8C8.32663 8 8.04048 8.11853 7.8295 8.3295C7.61853 8.54048 7.5 8.82663 7.5 9.125C7.5 9.42337 7.61853 9.70952 7.8295 9.9205C8.04048 10.1315 8.32663 10.25 8.625 10.25ZM9.75 12.875C9.75 12.5766 9.63147 12.2905 9.42049 12.0795C9.20952 11.8685 8.92337 11.75 8.625 11.75C8.32663 11.75 8.04048 11.8685 7.8295 12.0795C7.61853 12.2905 7.5 12.5766 7.5 12.875C7.5 13.1734 7.61853 13.4595 7.8295 13.6705C8.04048 13.8815 8.32663 14 8.625 14C8.92337 14 9.20952 13.8815 9.42049 13.6705C9.63147 13.4595 9.75 13.1734 9.75 12.875ZM12.375 14C12.6734 14 12.9595 13.8815 13.1705 13.6705C13.3815 13.4595 13.5 13.1734 13.5 12.875C13.5 12.5766 13.3815 12.2905 13.1705 12.0795C12.9595 11.8685 12.6734 11.75 12.375 11.75C12.0766 11.75 11.7905 11.8685 11.5795 12.0795C11.3685 12.2905 11.25 12.5766 11.25 12.875C11.25 13.1734 11.3685 13.4595 11.5795 13.6705C11.7905 13.8815 12.0766 14 12.375 14Z" fill="black"/>
</svg>
