<svg width="22" height="20" viewBox="0 0 22 20" fill="none" xmlns="http://www.w3.org/2000/svg">
<path d="M11 18.0001H13V5.00008L19.394 7.74008C19.574 7.81724 19.7274 7.94556 19.8351 8.10911C19.9428 8.27266 20.0002 8.46424 20 8.66008V18.0001H22V20.0001H0V18.0001H2V4.65008C1.99998 4.4566 2.05608 4.26727 2.16151 4.10503C2.26695 3.9428 2.41718 3.81464 2.594 3.73608L10.297 0.313083C10.3731 0.279296 10.4563 0.265026 10.5393 0.271566C10.6223 0.278107 10.7023 0.305251 10.7721 0.350539C10.8419 0.395827 10.8993 0.457824 10.9391 0.530912C10.9789 0.603999 10.9998 0.685864 11 0.769084V18.0001Z" fill="black"/>
</svg>
