<svg width="26" height="19" viewBox="0 0 26 19" fill="none" xmlns="http://www.w3.org/2000/svg">
<path d="M17.6597 0.875H14.17C13.845 0.875 13.5322 1.00977 13.2925 1.25234L9.29906 5.29531C9.295 5.2998 9.29094 5.30879 9.28687 5.31328C8.6125 6.01406 8.62469 7.13262 9.20156 7.82891C9.7175 8.45332 10.8022 8.61953 11.4806 7.9502C11.4847 7.9457 11.4928 7.9457 11.4969 7.94121L14.7428 4.65293C15.0069 4.38789 15.4212 4.40586 15.6609 4.69785C15.9047 4.98984 15.8844 5.44355 15.6203 5.71309L14.56 6.78672L20.475 12.0965C20.5928 12.2043 20.6984 12.3211 20.7959 12.4424V3.75L18.5778 1.29727C18.3381 1.02773 18.005 0.875 17.6597 0.875ZM22.1 3.75898V13.817C22.1 14.6121 22.6809 15.2545 23.4 15.2545H26V3.75898H22.1ZM24.05 13.817C23.6925 13.817 23.4 13.4936 23.4 13.0982C23.4 12.7029 23.6925 12.3795 24.05 12.3795C24.4075 12.3795 24.7 12.7029 24.7 13.0982C24.7 13.4936 24.4075 13.817 24.05 13.817ZM0 15.25H2.6C3.31906 15.25 3.9 14.6076 3.9 13.8125V3.75898H0V15.25ZM1.95 12.3795C2.3075 12.3795 2.6 12.7029 2.6 13.0982C2.6 13.4936 2.3075 13.817 1.95 13.817C1.5925 13.817 1.3 13.4936 1.3 13.0982C1.3 12.6984 1.5925 12.3795 1.95 12.3795ZM19.6584 13.215L13.5931 7.77051L12.3744 9.00586C11.1678 10.2232 9.31937 10.1064 8.24281 8.8082C7.15 7.4875 7.23531 5.44355 8.42156 4.23965L11.7447 0.875H8.34031C7.995 0.875 7.66594 1.02773 7.42219 1.29727L5.2 3.75V13.808H5.94344L9.62 17.4871C10.7331 18.4889 12.3703 18.3002 13.2762 17.0693L13.2844 17.0604L14.0116 17.7566C14.6575 18.3406 15.6122 18.2283 16.1362 17.5141L17.4119 15.7801L17.6312 15.9777C18.1878 16.4764 19.0084 16.3865 19.4594 15.7666L19.8453 15.241C20.3003 14.6211 20.215 13.7182 19.6584 13.215Z" fill="black"/>
</svg>
