<svg width="13" height="13" viewBox="0 0 13 13" fill="none" xmlns="http://www.w3.org/2000/svg">
<path d="M7.99032 6.73115C8.13275 6.69 8.46629 6.5934 8.62134 6.1374L8.94076 5.19804L9.06925 5.24168C9.12807 5.26171 9.19254 5.22996 9.21256 5.17114L9.38394 4.66716C9.40397 4.60834 9.37221 4.5439 9.31334 4.5239L5.17232 3.11585C5.11353 3.09585 5.049 3.12763 5.02901 3.18642L4.85763 3.69037C4.83766 3.74917 4.86944 3.81364 4.9282 3.83366L5.05669 3.87736L4.73153 4.83382C4.57799 5.28535 4.67956 5.43782 4.87222 5.66858L5.71019 6.67204L5.61678 6.94673C5.29615 7.01631 4.45826 7.19888 4.34546 7.23146C4.20306 7.27266 3.86944 7.36915 3.71437 7.82521L3.43938 8.63402L3.31087 8.59035C3.2521 8.57035 3.18755 8.60208 3.16753 8.6609L2.99623 9.16485C2.97621 9.22367 3.00799 9.28811 3.06681 9.30817L7.20785 10.7162C7.26659 10.7362 7.33111 10.7045 7.35114 10.6456L7.52241 10.1417C7.54246 10.0829 7.51071 10.0184 7.45183 9.9984L7.3234 9.95471L7.60415 9.12879C7.75769 8.67731 7.65619 8.52476 7.46348 8.29411L6.62556 7.29063L6.71889 7.01594C7.03956 6.94638 7.87745 6.76384 7.99032 6.73115ZM6.24027 7.46358L7.15149 8.55466C7.2214 8.63838 7.25843 8.68409 7.26847 8.72593C7.28054 8.77618 7.2644 8.86518 7.21926 8.99784L6.93846 9.82382L3.82432 8.76494L4.09926 7.95615C4.18608 7.70087 4.34348 7.6553 4.45836 7.62205C4.54821 7.59608 5.31901 7.42709 5.8152 7.31976C5.88491 7.30468 5.9417 7.25406 5.96467 7.18648L6.13187 6.69479C6.15465 6.62765 6.14089 6.55351 6.09546 6.49908L5.18699 5.41126L5.18424 5.40792C5.1143 5.3242 5.07728 5.2785 5.06726 5.23662C5.05522 5.18637 5.07128 5.09746 5.11645 4.96472L5.44163 4.00825L8.55585 5.06712L8.23639 6.00651C8.14962 6.26185 7.99228 6.30736 7.87737 6.34061C7.78757 6.36661 7.01675 6.53565 6.52061 6.64291C6.45087 6.65801 6.39403 6.70858 6.37103 6.77621L6.20389 7.26784C6.18105 7.33502 6.19489 7.4091 6.24027 7.46358Z" fill="#FC8800"/>
<path d="M8.7006 11.3406C8.60971 11.3921 8.51598 11.4414 8.42219 11.4871C8.40701 11.4945 8.39237 11.5027 8.3782 11.5114C8.36316 11.5166 8.34819 11.5227 8.33333 11.5296C7.92622 11.7194 7.50171 11.8531 7.06439 11.9306C7.0588 11.9314 7.0532 11.9317 7.04755 11.9327C6.94445 11.951 6.83953 11.9662 6.73576 11.978C6.73463 11.9782 6.73348 11.9785 6.73236 11.9786C6.54178 11.9997 6.34907 12.0104 6.15435 12.0104C3.90911 12.0104 1.99433 10.5697 1.28487 8.56442C1.27418 8.53382 1.26342 8.5033 1.25327 8.47265C1.08321 7.96125 0.990844 7.41471 0.990844 6.84693C0.990844 6.27798 1.08361 5.73023 1.2544 5.2179C1.25812 5.20671 1.26171 5.1956 1.26548 5.18438C1.27568 5.15455 1.28623 5.12483 1.29699 5.0952C1.302 5.08127 1.30706 5.06743 1.3122 5.05362C1.90174 3.46683 3.25025 2.24611 4.91428 1.83437C4.91532 1.83413 4.91639 1.83405 4.91744 1.83381C4.94204 1.8277 4.96683 1.82176 4.99165 1.81603C4.99444 1.81542 4.99711 1.8144 4.99979 1.81373C5.36281 1.73052 5.74028 1.68578 6.12763 1.6838L6.1321 2.21468C6.13347 2.3795 6.23754 2.4271 6.36321 2.32057L7.48462 1.37002C7.61027 1.26349 7.60893 1.09078 7.48133 0.98636L6.34417 0.0547645C6.21668 -0.0496237 6.1135 -0.000280963 6.11489 0.164507L6.11936 0.694346C4.48888 0.703369 2.95738 1.34223 1.80343 2.49612C1.68976 2.6098 1.58127 2.72723 1.47774 2.84795C1.47712 2.84864 1.47648 2.8492 1.47584 2.84995C1.47201 2.8544 1.4684 2.85903 1.46462 2.86347C0.556344 3.92928 0.0442827 5.25766 0.0040963 6.66688C0.0031057 6.67783 0.00192767 6.6887 0.00165994 6.69989C0.000562242 6.74691 0 6.7947 0 6.84195C0 6.91943 0.00157962 6.99796 0.00449788 7.07541C0.00481916 7.08449 0.00599717 7.09335 0.00688068 7.10227C0.0589275 8.38625 0.502905 9.60019 1.28184 10.6057C1.28449 10.6091 1.28661 10.6128 1.28928 10.6163C1.36537 10.7145 1.44583 10.8118 1.5281 10.9054C1.5334 10.9114 1.53921 10.9166 1.54467 10.9224C1.62796 11.0163 1.71396 11.1083 1.80346 11.1977C2.71704 12.1113 3.86734 12.702 5.11599 12.913C5.11979 12.9137 5.12362 12.9145 5.12742 12.9152C5.13026 12.9156 5.13307 12.9158 5.13585 12.9162C5.46931 12.9714 5.80965 13 6.15435 13C7.06145 13 7.93522 12.807 8.75145 12.4265C8.76904 12.4183 8.78574 12.4089 8.80183 12.399C8.82012 12.3927 8.83808 12.3852 8.85581 12.3766C8.9678 12.3219 9.07966 12.2632 9.18812 12.2018C9.42591 12.0671 9.50961 11.7652 9.37496 11.5274C9.24027 11.2896 8.93835 11.206 8.7006 11.3406Z" fill="#FC8800"/>
<path d="M10.442 3.9671C10.5375 4.10924 10.6939 4.18594 10.8531 4.18594C10.948 4.18594 11.044 4.15871 11.1287 4.1018C11.3555 3.94938 11.4158 3.64199 11.2633 3.41517C11.1938 3.3117 11.1202 3.20907 11.0444 3.1102C10.8784 2.89312 10.5679 2.85184 10.3509 3.01783C10.1339 3.18388 10.0925 3.49445 10.2586 3.71144C10.3221 3.79447 10.3838 3.88049 10.442 3.9671Z" fill="#FC8800"/>
<path d="M11.0703 5.26647C11.1021 5.36583 11.1314 5.4677 11.1573 5.5693C11.2143 5.79313 11.4156 5.94201 11.6364 5.94201C11.6768 5.94201 11.718 5.937 11.7589 5.92656C12.0238 5.85909 12.1837 5.58968 12.1162 5.32492C12.0854 5.20409 12.0506 5.08289 12.0127 4.96466C11.9295 4.70442 11.6509 4.56095 11.3907 4.64432C11.1304 4.72769 10.987 5.00624 11.0703 5.26647Z" fill="#FC8800"/>
<path d="M10.7552 10.1776C10.5484 9.99892 10.2361 10.0216 10.0573 10.2283C9.9889 10.3074 9.91725 10.3854 9.84427 10.4601C9.65327 10.6555 9.65691 10.9688 9.85241 11.1598C9.94866 11.2539 10.0735 11.3007 10.1981 11.3007C10.3267 11.3007 10.4552 11.2509 10.5521 11.1517C10.639 11.0627 10.7245 10.9698 10.8059 10.8756C10.9845 10.6688 10.9619 10.3563 10.7552 10.1776Z" fill="#FC8800"/>
<path d="M11.826 6.52562C11.5524 6.5174 11.3247 6.73228 11.3166 7.00539C11.3136 7.10999 11.3071 7.2158 11.2975 7.31984C11.2725 7.59194 11.4729 7.83281 11.745 7.85779C11.7604 7.85921 11.7757 7.85988 11.7908 7.85988C12.0436 7.85988 12.2594 7.66704 12.2829 7.41031C12.2944 7.28611 12.3021 7.15987 12.3058 7.03498C12.3138 6.76192 12.0991 6.53378 11.826 6.52562Z" fill="#FC8800"/>
<path d="M11.6061 8.44437C11.3515 8.34469 11.0645 8.47023 10.9649 8.72473C10.9268 8.82205 10.8852 8.91964 10.8411 9.01463C10.7263 9.26255 10.8341 9.55663 11.0821 9.67151C11.1495 9.70273 11.2201 9.71748 11.2898 9.71748C11.4766 9.71748 11.6553 9.61119 11.739 9.43058C11.7914 9.31749 11.841 9.20143 11.8864 9.0855C11.986 8.83108 11.8605 8.54402 11.6061 8.44437Z" fill="#FC8800"/>
<path d="M9.92099 2.59549C10.0836 2.37585 10.0375 2.066 9.81781 1.90338C9.71781 1.8293 9.61412 1.75736 9.50965 1.68941C9.28056 1.54047 8.97408 1.60537 8.82515 1.83447C8.67623 2.06354 8.7411 2.36998 8.97015 2.51898C9.05794 2.576 9.14495 2.63648 9.22899 2.6987C9.3175 2.76422 9.42071 2.79586 9.52307 2.79586C9.67449 2.79586 9.824 2.72655 9.92099 2.59549Z" fill="#FC8800"/>
</svg>
