<svg width="10" height="10" viewBox="0 0 10 10" fill="none" xmlns="http://www.w3.org/2000/svg">
<path fill-rule="evenodd" clip-rule="evenodd" d="M7.27887 0.761844C7.18692 0.614935 7.05147 0.500347 6.89135 0.43403C6.73123 0.367713 6.55442 0.352967 6.38553 0.391844L5.18686 0.667177C5.06402 0.695411 4.93637 0.695411 4.81353 0.667177L3.61486 0.391844C3.44597 0.352967 3.26917 0.367713 3.10905 0.43403C2.94893 0.500347 2.81347 0.614935 2.72153 0.761844L2.0682 1.80451C2.00153 1.91118 1.91153 2.00118 1.80486 2.06851L0.762198 2.72184C0.615543 2.8137 0.501123 2.94894 0.434821 3.10879C0.368518 3.26863 0.353621 3.44515 0.392198 3.61384L0.667531 4.81384C0.695664 4.93647 0.695664 5.06388 0.667531 5.18651L0.392198 6.38584C0.353471 6.55464 0.368293 6.7313 0.434603 6.89128C0.500913 7.05126 0.615417 7.18661 0.762198 7.27851L1.80486 7.93184C1.91153 7.99851 2.00153 8.08851 2.06886 8.19518L2.7222 9.23784C2.9102 9.53851 3.26886 9.68718 3.61486 9.60784L4.81353 9.33251C4.93637 9.30428 5.06402 9.30428 5.18686 9.33251L6.3862 9.60784C6.55499 9.64657 6.73166 9.63175 6.89164 9.56544C7.05162 9.49913 7.18696 9.38463 7.27887 9.23784L7.9322 8.19518C7.99887 8.08851 8.08886 7.99851 8.19553 7.93184L9.23886 7.27851C9.38565 7.18648 9.5001 7.05098 9.5663 6.89087C9.63249 6.73076 9.64714 6.554 9.6082 6.38518L9.33353 5.18651C9.3053 5.06367 9.3053 4.93602 9.33353 4.81318L9.60887 3.61384C9.64766 3.44512 9.63293 3.26851 9.56675 3.10853C9.50056 2.94856 9.38619 2.81317 9.23953 2.72118L8.1962 2.06784C8.08968 2.00105 7.99965 1.91103 7.93287 1.80451L7.27887 0.761844ZM6.94353 3.51318C6.98477 3.43735 6.99498 3.34849 6.97203 3.26529C6.94908 3.18209 6.89475 3.11103 6.82048 3.06707C6.7462 3.02311 6.65777 3.00968 6.57379 3.02959C6.48981 3.0495 6.41683 3.10121 6.3702 3.17384L4.62686 6.12451L3.5742 5.11651C3.54297 5.08444 3.5056 5.059 3.46433 5.04169C3.42305 5.02437 3.37871 5.01555 3.33395 5.01575C3.28919 5.01594 3.24493 5.02515 3.2038 5.04282C3.16268 5.06049 3.12553 5.08627 3.09459 5.1186C3.06364 5.15094 3.03952 5.18918 3.02367 5.23104C3.00782 5.2729 3.00056 5.31752 3.00233 5.36224C3.0041 5.40697 3.01485 5.45088 3.03396 5.49136C3.05306 5.53184 3.08013 5.56805 3.11353 5.59784L4.46953 6.89718C4.50582 6.93188 4.54949 6.95793 4.59726 6.97339C4.64504 6.98886 4.69568 6.99332 4.74543 6.98646C4.79517 6.97961 4.84272 6.9616 4.88453 6.93378C4.92633 6.90597 4.96132 6.86907 4.98686 6.82584L6.94353 3.51318Z" fill="#0C9C00"/>
</svg>
