<svg width="26" height="26" viewBox="0 0 26 26" fill="none" xmlns="http://www.w3.org/2000/svg">
<path d="M13 26C20.1797 26 26 20.1797 26 13C26 5.8203 20.1797 0 13 0C5.8203 0 0 5.8203 0 13C0 20.1797 5.8203 26 13 26Z" fill="#FFC200"/>
<path fill-rule="evenodd" clip-rule="evenodd" d="M22.124 22.2592C19.6706 24.6774 16.3577 26.0228 12.913 25.9998C9.46829 25.9769 6.17358 24.5874 3.75269 22.1368C4.06229 21.2806 4.66363 20.5608 5.45111 20.1039C5.98185 19.7115 6.55736 19.3836 7.16551 19.127C6.24078 15.9494 8.75455 14.3872 9.7163 13.9375C9.7163 15.4045 11.0899 14.431 12.7947 14.4495C14.1982 14.4651 16.9736 15.8778 16.9736 14.0141C18.5176 14.471 20.2005 17.4134 19.0423 19.2212C19.5171 19.4534 19.9658 19.7358 20.3805 20.0635C21.1914 20.5795 21.8054 21.3525 22.124 22.2592Z" fill="#677079"/>
<path fill-rule="evenodd" clip-rule="evenodd" d="M10.1106 16.2732L16.3876 16.3111V17.757L16.3847 17.7793C16.3803 17.8448 16.3705 17.9099 16.3552 17.9737L16.3342 18.1172L16.3216 18.147C15.9152 20.2817 14.1368 21.1068 13.0387 21.6815C11.8818 21.0512 10.246 19.9157 10.116 17.9068L10.1106 17.882V17.7979C10.1097 17.7688 10.1091 17.7398 10.1089 17.7108C10.1089 17.7259 10.1101 17.7402 10.1106 17.7554V16.2732Z" fill="#F9DCA4"/>
<path opacity="0.11" fill-rule="evenodd" clip-rule="evenodd" d="M16.3881 16.2466V17.9315C16.3869 18.0877 16.3735 18.2436 16.3482 18.3977C16.3163 18.5884 16.2627 18.7749 16.1883 18.9535C14.0073 20.6005 10.5322 19.2496 9.97729 16.4363L16.3881 16.2466Z" fill="black"/>
<path fill-rule="evenodd" clip-rule="evenodd" d="M7.61666 10.6167C5.53834 11.151 7.30533 13.6837 8.61249 13.6728C8.08535 12.7284 7.74711 11.6904 7.61666 10.6167Z" fill="#F9DCA4"/>
<path fill-rule="evenodd" clip-rule="evenodd" d="M18.4428 10.6167C20.5211 11.151 18.7541 13.6837 17.4465 13.6723C17.9738 12.7281 18.3122 11.6903 18.4428 10.6167Z" fill="#F9DCA4"/>
<path fill-rule="evenodd" clip-rule="evenodd" d="M12.9299 4.77979C21.5642 4.77979 18.1993 18.4302 12.9299 18.4302C7.95283 18.4302 4.29557 4.77979 12.9299 4.77979Z" fill="#FFE8BE"/>
<path fill-rule="evenodd" clip-rule="evenodd" d="M8.85483 9.29992C8.92849 9.38066 8.98312 9.47689 9.01469 9.58152C9.04626 9.68615 9.05398 9.79653 9.03727 9.90454C9.02056 10.0125 8.97985 10.1154 8.91814 10.2056C8.85642 10.2958 8.77527 10.371 8.68066 10.4258C8.07062 10.9277 8.04832 12.6778 8.04832 12.6778C7.81273 12.4439 7.81819 11.191 7.30745 10.467C6.7967 9.74294 6.45256 4.67671 9.30878 2.8344C9.13326 3.04085 9.00677 3.28436 8.93879 3.54666C8.87081 3.80897 8.86311 4.08326 8.91626 4.34897C8.91626 4.34897 10.9003 1.50369 14.192 1.58572C13.931 1.72802 13.703 1.92369 13.5227 2.16001C13.3424 2.39632 13.214 2.66797 13.1457 2.95725C13.1457 2.95725 16.0234 1.77 18.4214 3.18233C17.798 3.35466 17.2083 3.63164 16.6776 4.00146C17.8421 4.03343 18.9675 4.24968 19.8161 5.00444C19.6335 5.06307 19.4644 5.15771 19.319 5.28277C19.1736 5.40782 19.0547 5.56075 18.9693 5.73253C18.884 5.90431 18.8339 6.09145 18.8221 6.28289C18.8103 6.47434 18.837 6.66621 18.9006 6.84717C19.2608 8.32092 19.2944 9.69203 18.9456 10.4291C18.5969 11.1662 18.4324 10.6904 18.214 12.2361C18.2033 12.3405 18.1685 12.441 18.1123 12.5296C18.056 12.6183 17.98 12.6926 17.8901 12.7468C17.8817 12.8587 18.0508 11.1666 17.6145 10.716C17.1786 10.2659 17.4525 9.71264 17.6267 9.38533C18.8426 7.10212 15.2013 6.06758 13.2109 6.07011C11.4847 6.07221 7.32091 6.85684 8.85483 9.29992Z" fill="#8A5C42"/>
<path fill-rule="evenodd" clip-rule="evenodd" d="M8.32593 20.683C8.33855 20.699 12.7089 26.3555 17.8467 20.5989C17.2261 22.3036 14.5495 23.6575 13.0186 23.6533C10.0946 23.6448 8.47654 21.2973 8.32593 20.683Z" fill="#434955"/>
<path fill-rule="evenodd" clip-rule="evenodd" d="M15.2871 25.7994C15.1146 25.8297 14.9413 25.8562 14.7667 25.8802V22.1202C14.7731 22.0573 14.8038 21.9993 14.8524 21.9587C14.901 21.9182 14.9636 21.8982 15.0267 21.9032C15.0898 21.8981 15.1525 21.918 15.2012 21.9586C15.2498 21.9992 15.2807 22.0572 15.2871 22.1202V25.7994ZM11.1557 25.8692C10.9812 25.8443 10.8077 25.8162 10.6353 25.7851V22.1202C10.6417 22.0573 10.6724 21.9993 10.721 21.9587C10.7696 21.9182 10.8321 21.8982 10.8953 21.9032C10.9585 21.898 11.0212 21.9178 11.07 21.9584C11.1188 21.999 11.1497 22.0571 11.1561 22.1202L11.1557 25.8692Z" fill="#E6E6E6"/>
</svg>
