<svg width="26" height="26" viewBox="0 0 26 26" fill="none" xmlns="http://www.w3.org/2000/svg">
<path d="M13 26C20.1797 26 26 20.1797 26 13C26 5.8203 20.1797 0 13 0C5.8203 0 0 5.8203 0 13C0 20.1797 5.8203 26 13 26Z" fill="#58B0E0"/>
<path fill-rule="evenodd" clip-rule="evenodd" d="M9.78369 16.2732L16.476 16.3346V22.8986L9.78369 22.8367V16.2732Z" fill="#302E33"/>
<path fill-rule="evenodd" clip-rule="evenodd" d="M22.4989 21.8742C21.2842 23.1779 19.8137 24.2171 18.1794 24.9269C16.545 25.6368 14.7819 26.0022 13 26.0002C12.4604 26.0001 11.9213 25.9668 11.3858 25.9005C9.74336 25.6651 8.15429 25.1463 6.68933 24.3674C5.45285 23.6793 4.33645 22.7948 3.38379 21.7484L3.92398 20.4442L9.78242 17.8308C9.78242 19.7387 10.3336 22.0463 12.9121 22.0854C16.0969 22.133 16.4755 19.782 16.4755 17.8152L21.8565 20.4581L22.4989 21.8742Z" fill="#857A6E"/>
<path fill-rule="evenodd" clip-rule="evenodd" d="M13.2365 22.0854C11.8305 19.7832 9.28684 19.4404 8.45762 19.3087C6.17735 18.9469 2.33203 17.508 4.85463 15.2194C9.38361 11.1115 7.75671 5.9502 13.064 5.9502C18.731 5.9502 16.797 11.1115 21.326 15.2194C23.849 17.508 20.0037 18.9469 17.7226 19.3087C16.8129 19.4 15.9361 19.6976 15.1587 20.1787C14.3814 20.6599 13.724 21.312 13.2365 22.0854Z" fill="#302E33"/>
<path opacity="0.18" fill-rule="evenodd" clip-rule="evenodd" d="M16.8135 17.7759C16.3402 19.4629 15.1272 20.4672 13.1962 20.3872C11.5386 20.3187 10.1262 19.3788 9.78418 17.7771L16.8135 17.7759Z" fill="black"/>
<path fill-rule="evenodd" clip-rule="evenodd" d="M13.0963 3.54736C22.0495 3.54736 18.5601 18.3842 13.0963 18.3842C7.93541 18.3842 4.1431 3.54736 13.0963 3.54736Z" fill="#FFE8BE"/>
<path fill-rule="evenodd" clip-rule="evenodd" d="M7.72644 10.116C6.43485 10.6797 7.53291 13.35 8.34573 13.3378C8.00862 12.2931 7.80064 11.2112 7.72644 10.116Z" fill="#F9DCA4"/>
<path fill-rule="evenodd" clip-rule="evenodd" d="M18.5703 10.116C19.8619 10.6793 18.7638 13.35 17.9514 13.3378C18.2883 12.2931 18.4961 11.2111 18.5703 10.116Z" fill="#F9DCA4"/>
<path fill-rule="evenodd" clip-rule="evenodd" d="M8.04115 10.8149C6.85053 8.72898 6.87031 6.87069 7.46814 5.84331C8.32976 4.3624 9.53889 4.29172 9.70423 3.94294C11.3976 0.375716 20.1543 3.08132 19.7887 8.60865C19.6102 8.2398 19.3957 7.88947 19.1484 7.56276C19.1484 7.56276 19.1169 9.66254 18.5438 10.4897C17.8539 10.6849 12.2075 10.5902 10.1073 6.30441C8.4219 7.25859 7.97847 9.25571 8.04157 10.8145L8.04115 10.8149Z" fill="#969696"/>
<path fill-rule="evenodd" clip-rule="evenodd" d="M13.1053 19.5813C11.9862 19.5905 6.53498 17.8891 7.80007 8.62378C7.80007 8.62378 8.07353 12.7956 8.96754 14.0039C9.54897 14.7898 10.0719 15.0851 10.5747 14.3177C11.0997 13.5184 12.2348 12.8566 13.1149 13.6122C13.8457 12.8339 15.1546 13.523 15.6746 14.3177C16.1773 15.0847 16.7011 14.7902 17.2825 14.0039C18.1765 12.7956 18.3705 8.76346 18.3705 8.76346C19.8245 18.6923 14.2244 19.5905 13.1053 19.5813Z" fill="#969696"/>
<path fill-rule="evenodd" clip-rule="evenodd" d="M11.1602 15.4831C11.6722 14.9653 12.3555 14.6518 13.082 14.6013C13.7974 14.6648 14.4678 14.9773 14.9764 15.4844C14.6449 15.7053 12.5052 16.2152 11.1602 15.4831Z" fill="#FFE8BE"/>
<path fill-rule="evenodd" clip-rule="evenodd" d="M11.1957 21.5813C10.1312 20.9187 8.97207 20.422 7.75805 20.1084C5.74788 19.7895 2.11082 19.4698 3.01619 15.8651C5.05833 7.73269 7.93054 1.55158 13.2345 1.62815C18.6348 1.70556 21.2659 8.27541 23.2643 15.8756C24.0653 18.9207 20.4076 19.7937 18.4227 20.108C17.2466 20.3509 16.1318 20.8296 15.1458 21.5153C12.2163 23.52 14.3834 23.4922 11.1957 21.5813ZM13.2366 22.0853C13.724 21.3119 14.3814 20.6598 15.1588 20.1787C15.9362 19.6975 16.813 19.4 17.7226 19.3086C20.0038 18.9468 23.8491 17.508 21.3261 15.2193C16.7971 11.1114 18.7315 5.95013 13.0641 5.95013C7.75679 5.95013 9.38369 11.1114 4.85471 15.2193C2.33169 17.508 6.17701 18.9468 8.4577 19.3086C9.2865 19.4403 11.8301 19.7828 13.2366 22.0853Z" fill="#7D7062"/>
<path fill-rule="evenodd" clip-rule="evenodd" d="M10.1821 21.1253C10.1821 21.1253 12.7014 22.4952 13.3745 24.4877C14.0519 22.3332 16.5833 20.9844 16.5833 20.9844C16.5833 20.9844 13.913 22.016 13.3366 23.3639C12.9273 22.6395 12.1973 21.9335 10.1821 21.1253Z" fill="#302E33"/>
</svg>
