<svg width="60" height="60" viewBox="0 0 60 60" fill="none" xmlns="http://www.w3.org/2000/svg">
<g clip-path="url(#clip0_362_10717)">
<path d="M1.27054 29.641C1.26915 34.6821 2.58635 39.6045 5.09101 43.9431L1.03101 58.7668L16.2012 54.7891C20.3971 57.0733 25.0983 58.2702 29.8757 58.2705H29.8882C45.6591 58.2705 58.4971 45.4373 58.5038 29.6635C58.5068 22.0201 55.5329 14.8326 50.1296 9.42517C44.7273 4.01819 37.5424 1.03889 29.8871 1.0354C14.1143 1.0354 1.27728 13.868 1.27077 29.641" fill="url(#paint0_linear_362_10717)"/>
<path d="M0.248837 29.6316C0.247209 34.8542 1.61163 39.9526 4.20558 44.4465L0 59.8016L15.7142 55.6814C20.044 58.0421 24.9188 59.2867 29.8793 59.2886H29.8921C46.2288 59.2886 59.5279 45.9937 59.5349 29.6553C59.5377 21.7372 56.4567 14.2914 50.8605 8.69023C45.2635 3.08977 37.8216 0.00325581 29.8921 0C13.5526 0 0.255349 13.293 0.248837 29.6316ZM9.60721 43.6726L9.02046 42.7412C6.55395 38.8193 5.25209 34.2872 5.25395 29.6335C5.25907 16.0533 16.3112 5.00465 29.9014 5.00465C36.4828 5.00744 42.6679 7.57302 47.32 12.2279C51.9719 16.8833 54.5316 23.0716 54.53 29.6535C54.524 43.2337 43.4716 54.2837 29.8921 54.2837H29.8823C25.4607 54.2814 21.1242 53.094 17.3423 50.85L16.4423 50.3163L7.11721 52.7612L9.60721 43.6726Z" fill="url(#paint1_linear_362_10717)"/>
<path d="M22.4833 17.2438C21.9284 16.0105 21.3445 15.9856 20.8168 15.964C20.3847 15.9454 19.8908 15.9468 19.3973 15.9468C18.9033 15.9468 18.1008 16.1326 17.4224 16.8733C16.7433 17.6147 14.8298 19.4063 14.8298 23.0503C14.8298 26.6942 17.484 30.2161 17.854 30.7108C18.2245 31.2045 22.978 38.9217 30.5063 41.8905C36.7631 44.3577 38.0363 43.867 39.3943 43.7433C40.7524 43.6201 43.7766 41.9522 44.3936 40.2226C45.011 38.4933 45.011 37.011 44.8259 36.7012C44.6408 36.3926 44.1468 36.2073 43.4061 35.837C42.6654 35.4668 39.0238 33.6747 38.3449 33.4275C37.6659 33.1805 37.1722 33.0573 36.6782 33.7989C36.1843 34.5394 34.7659 36.2073 34.3336 36.7012C33.9017 37.1963 33.4694 37.258 32.7289 36.8875C31.9877 36.5159 29.6024 35.7347 26.7724 33.2117C24.5705 31.2484 23.084 28.824 22.6519 28.0824C22.2198 27.3419 22.6056 26.9405 22.977 26.5715C23.3098 26.2396 23.718 25.7066 24.0887 25.2742C24.458 24.8417 24.5812 24.5331 24.8282 24.0391C25.0754 23.5447 24.9517 23.1122 24.7668 22.7417C24.5812 22.3712 23.1419 18.7082 22.4833 17.2438Z" fill="white"/>
</g>
<defs>
<linearGradient id="paint0_linear_362_10717" x1="2874.67" y1="5774.18" x2="2874.67" y2="1.0354" gradientUnits="userSpaceOnUse">
<stop stop-color="#1FAF38"/>
<stop offset="1" stop-color="#60D669"/>
</linearGradient>
<linearGradient id="paint1_linear_362_10717" x1="2976.74" y1="5980.16" x2="2976.74" y2="0" gradientUnits="userSpaceOnUse">
<stop stop-color="#F9F9F9"/>
<stop offset="1" stop-color="white"/>
</linearGradient>
<clipPath id="clip0_362_10717">
<rect width="59.5349" height="60" fill="white"/>
</clipPath>
</defs>
</svg>
