<svg width="20" height="4" viewBox="0 0 20 4" fill="none" xmlns="http://www.w3.org/2000/svg">
<path d="M18 0C16.8954 0 16 0.895431 16 2C16 3.10457 16.8954 4 18 4C19.1046 4 20 3.10457 20 2C20 0.895431 19.1046 0 18 0Z" fill="#9BA1A8"/>
<path d="M10 0C8.89543 0 8 0.895431 8 2C8 3.10457 8.89543 4 10 4C11.1046 4 12 3.10457 12 2C12 0.895431 11.1046 0 10 0Z" fill="#9BA1A8"/>
<path d="M0 2C0 0.895431 0.895432 0 2 0C3.10457 0 4 0.895431 4 2C4 3.10457 3.10457 4 2 4C0.895432 4 0 3.10457 0 2Z" fill="#9BA1A8"/>
</svg>
