<svg width="26" height="26" viewBox="0 0 26 26" fill="none" xmlns="http://www.w3.org/2000/svg">
<path d="M12.9992 25.9984C20.1785 25.9984 25.9984 20.1785 25.9984 12.9992C25.9984 5.81994 20.1785 0 12.9992 0C5.81994 0 0 5.81994 0 12.9992C0 20.1785 5.81994 25.9984 12.9992 25.9984Z" fill="#9F82BB"/>
<path fill-rule="evenodd" clip-rule="evenodd" d="M9.7832 16.2722L16.4751 16.3231V21.7576L9.7832 21.7067V16.2722Z" fill="#F9DCA4"/>
<path fill-rule="evenodd" clip-rule="evenodd" d="M22.4976 21.8728C21.2829 23.1763 19.8125 24.2154 18.1783 24.9253C16.544 25.6351 14.781 26.0004 12.9993 25.9984C11.6829 25.9955 10.3742 25.7967 9.11633 25.4086C6.91635 24.7144 4.93886 23.4512 3.38403 21.747L3.92378 20.4428L9.78185 17.8295C9.78185 19.7373 10.4209 20.7996 12.9993 20.8387C16.1839 20.8862 16.4746 19.7807 16.4746 17.814L21.8552 20.4567L22.4976 21.8728Z" fill="white"/>
<path opacity="0.11" fill-rule="evenodd" clip-rule="evenodd" d="M16.4767 16.3134V17.8194C16.4767 17.9444 16.475 18.1568 16.4645 18.355C14.7165 20.694 10.4445 19.4265 9.82983 16.2292L16.4767 16.3134Z" fill="black"/>
<path fill-rule="evenodd" clip-rule="evenodd" d="M13.0956 3.54712C22.0482 3.54712 18.5595 18.3831 13.0956 18.3831C7.93543 18.3831 4.14293 3.54712 13.0956 3.54712Z" fill="#FFE8BE"/>
<path fill-rule="evenodd" clip-rule="evenodd" d="M7.72592 10.1155C6.43441 10.6792 7.5324 13.3493 8.34517 13.3371C8.0081 12.2925 7.80013 11.2106 7.72592 10.1155Z" fill="#F9DCA4"/>
<path fill-rule="evenodd" clip-rule="evenodd" d="M18.5693 10.1155C19.8608 10.6788 18.7628 13.3493 17.9504 13.3371C18.2873 12.2925 18.4951 11.2106 18.5693 10.1155Z" fill="#F9DCA4"/>
<path fill-rule="evenodd" clip-rule="evenodd" d="M9.26975 14.7661C9.25051 14.697 9.24074 14.6257 9.24072 14.554V14.5519C9.24534 14.4114 9.29931 14.277 9.39317 14.1723C9.48703 14.0676 9.61477 13.9993 9.75396 13.9794C9.69278 14.0459 9.65357 14.1297 9.64167 14.2193C9.62976 14.3089 9.64574 14.4 9.68743 14.4802C9.72911 14.5604 9.79449 14.6258 9.87466 14.6676C9.95483 14.7093 10.0459 14.7253 10.1355 14.7135C10.2773 14.6931 10.416 14.6549 10.5482 14.5999C10.6715 14.5435 10.8036 14.4783 10.9449 14.3976C11.154 14.2685 11.3543 14.126 11.5448 13.971C11.7658 13.7702 12.0501 13.6531 12.3483 13.6399C12.547 13.6395 12.7396 13.7089 12.8923 13.8359C12.9924 13.9132 13.0793 14.0061 13.1498 14.1111C13.2201 14.006 13.307 13.9131 13.4072 13.8359C13.5598 13.709 13.7522 13.6396 13.9507 13.6399C14.2492 13.6529 14.5336 13.7701 14.7547 13.971C14.9452 14.1261 15.1455 14.2686 15.3546 14.3976C15.4959 14.4783 15.628 14.5435 15.7513 14.5995C15.8835 14.6547 16.0222 14.693 16.164 14.7135C16.2536 14.7252 16.3446 14.7091 16.4247 14.6673C16.5048 14.6255 16.5701 14.5601 16.6117 14.4799C16.6533 14.3998 16.6693 14.3087 16.6574 14.2192C16.6454 14.1296 16.6063 14.0459 16.5451 13.9794C16.6843 13.9993 16.8119 14.0675 16.9058 14.1721C16.9996 14.2767 17.0537 14.4111 17.0584 14.5515H17.0592L17.0588 14.554C17.0588 14.6257 17.049 14.697 17.0298 14.7661C16.7016 16.2936 13.928 15.931 13.1498 14.9916C12.3715 15.931 9.59747 16.2936 9.26975 14.7661Z" fill="#8A5C42"/>
<path fill-rule="evenodd" clip-rule="evenodd" d="M11.1193 2.41479H15.1175C16.0655 2.41757 16.9738 2.79538 17.6441 3.46569C18.3144 4.13601 18.6922 5.04436 18.695 5.99232V8.76466H7.54175V5.99232C7.54452 5.04436 7.92233 4.13601 8.59265 3.46569C9.26296 2.79538 10.1713 2.41757 11.1193 2.41479Z" fill="#464449"/>
<path fill-rule="evenodd" clip-rule="evenodd" d="M5.336 8.34131H20.9006C21.0532 8.34164 21.1994 8.40237 21.3073 8.51021C21.4152 8.61806 21.4761 8.76424 21.4765 8.91681C21.4763 9.06952 21.4156 9.21593 21.3076 9.32395C21.1997 9.43198 21.0533 9.49282 20.9006 9.49315H5.336C5.18336 9.49271 5.03711 9.43182 4.92925 9.3238C4.8214 9.21579 4.76072 9.06945 4.7605 8.91681C4.76094 8.76431 4.82172 8.61819 4.92955 8.51036C5.03738 8.40253 5.1835 8.34175 5.336 8.34131Z" fill="#333333"/>
<path d="M7.54175 6.67139H18.6954V8.34152H7.54175V6.67139Z" fill="#677079"/>
<path fill-rule="evenodd" clip-rule="evenodd" d="M12.3767 20.3079V25.9829C12.8712 26.0088 13.3669 26.0045 13.8609 25.9703V20.3079H12.3767Z" fill="#D5E1ED"/>
<path fill-rule="evenodd" clip-rule="evenodd" d="M9.7831 17.7429L12.3762 20.8059L8.6586 22.0335L8.64893 18.2376L9.7831 17.7429Z" fill="#D5E1ED"/>
<path fill-rule="evenodd" clip-rule="evenodd" d="M16.4877 17.7429L13.8945 20.8059L17.6126 22.0335L17.6218 18.2376L16.4877 17.7429Z" fill="#D5E1ED"/>
<path fill-rule="evenodd" clip-rule="evenodd" d="M10.104 19.3235L12.2453 20.1564C12.3482 20.0288 12.4787 19.9262 12.6269 19.8562C12.7752 19.7862 12.9373 19.7506 13.1013 19.7523C13.2652 19.7539 13.4266 19.7926 13.5735 19.8655C13.7203 19.9384 13.8487 20.0436 13.9491 20.1733L16.1325 19.3235V22.3537L13.9478 21.5056C13.8474 21.6347 13.7191 21.7395 13.5725 21.8121C13.4259 21.8847 13.2648 21.9232 13.1012 21.9248C12.9376 21.9264 12.7757 21.891 12.6278 21.8212C12.4798 21.7515 12.3495 21.6492 12.2466 21.522L10.104 22.3537V19.3235Z" fill="#464449"/>
<path fill-rule="evenodd" clip-rule="evenodd" d="M6.35864 19.3567L7.7486 18.7366V24.8946C7.27286 24.6802 6.80888 24.4407 6.35864 24.1769V19.3567Z" fill="#8A5C42"/>
<path fill-rule="evenodd" clip-rule="evenodd" d="M19.7442 19.4202L18.3542 18.7366V24.8479C18.8318 24.6311 19.2959 24.386 19.7442 24.1138V19.4202Z" fill="#8A5C42"/>
</svg>
